<svg width="26" height="32" viewBox="0 0 26 32" fill="none" xmlns="http://www.w3.org/2000/svg">
<g opacity="0.3">
<path opacity="0.3" d="M21.398 7.29494C20.5882 7.29416 19.8118 6.97211 19.2392 6.39949C18.6666 5.82688 18.3445 5.05047 18.3437 4.24068V2.75288e-07H4.69738C4.17381 -0.000194286 3.65533 0.102743 3.17156 0.302968C2.6878 0.503192 2.24823 0.796774 1.87795 1.16692C1.50766 1.53707 1.21393 1.97654 1.01353 2.46023C0.813121 2.94392 0.709961 3.46235 0.709961 3.98591V28.014C0.709961 28.5376 0.813121 29.0561 1.01353 29.5398C1.21393 30.0235 1.50766 30.4629 1.87795 30.8331C2.24823 31.2032 2.6878 31.4968 3.17156 31.697C3.65533 31.8972 4.17381 32.0002 4.69738 32H21.0795C21.603 32 22.1213 31.8969 22.6049 31.6966C23.0885 31.4963 23.5279 31.2027 23.898 30.8325C24.2681 30.4624 24.5617 30.023 24.762 29.5394C24.9623 29.0558 25.0655 28.5375 25.0655 28.014V7.29494H21.398Z" fill="#0072FF"/>
</g>
<path d="M25.0655 7.29494H21.398C20.5882 7.29416 19.8118 6.97211 19.2392 6.39949C18.6666 5.82688 18.3445 5.05047 18.3438 4.24068V0L25.0655 7.29494Z" fill="#0072FF"/>
<path d="M20.0545 12.4021H4.76247C4.61555 12.4021 4.47465 12.3438 4.37076 12.2399C4.26687 12.136 4.2085 11.9951 4.2085 11.8482C4.2083 11.7753 4.2225 11.7031 4.25025 11.6357C4.278 11.5683 4.31877 11.5071 4.37023 11.4555C4.42169 11.4039 4.48283 11.363 4.55014 11.335C4.61745 11.3071 4.68959 11.2927 4.76247 11.2927H20.0545C20.2018 11.2927 20.3431 11.3512 20.4472 11.4554C20.5514 11.5596 20.6099 11.7009 20.6099 11.8482C20.6095 11.9952 20.5508 12.1361 20.4467 12.24C20.3426 12.3438 20.2015 12.4021 20.0545 12.4021V12.4021Z" fill="#0072FF"/>
<path d="M20.0545 15.7156H4.76247C4.61555 15.7156 4.47465 15.6572 4.37076 15.5534C4.26687 15.4495 4.2085 15.3086 4.2085 15.1616C4.2083 15.0888 4.2225 15.0166 4.25025 14.9492C4.278 14.8818 4.31877 14.8206 4.37023 14.769C4.42169 14.7174 4.48283 14.6764 4.55014 14.6485C4.61745 14.6206 4.68959 14.6062 4.76247 14.6062H20.0545C20.2018 14.6062 20.3431 14.6647 20.4472 14.7689C20.5514 14.873 20.6099 15.0143 20.6099 15.1616C20.6095 15.3087 20.5508 15.4496 20.4467 15.5534C20.3426 15.6573 20.2015 15.7156 20.0545 15.7156V15.7156Z" fill="#0072FF"/>
<path d="M20.0545 19.0291H4.76247C4.68959 19.0291 4.61745 19.0147 4.55014 18.9868C4.48283 18.9588 4.42169 18.9179 4.37023 18.8663C4.31877 18.8147 4.278 18.7534 4.25025 18.6861C4.2225 18.6187 4.2083 18.5465 4.2085 18.4736C4.2085 18.3267 4.26687 18.1858 4.37076 18.0819C4.47465 17.978 4.61555 17.9196 4.76247 17.9196H20.0545C20.2015 17.9196 20.3426 17.9779 20.4467 18.0818C20.5508 18.1856 20.6095 18.3266 20.6099 18.4736C20.6099 18.6209 20.5514 18.7622 20.4472 18.8664C20.3431 18.9705 20.2018 19.0291 20.0545 19.0291Z" fill="#0072FF"/>
<path d="M14.023 22.3425H4.76247C4.68959 22.3425 4.61745 22.3282 4.55014 22.3002C4.48283 22.2723 4.42169 22.2313 4.37023 22.1797C4.31877 22.1281 4.278 22.0669 4.25025 21.9995C4.2225 21.9322 4.2083 21.86 4.2085 21.7871C4.2085 21.6402 4.26687 21.4992 4.37076 21.3953C4.47465 21.2915 4.61555 21.2331 4.76247 21.2331H14.023C14.1699 21.2331 14.3108 21.2915 14.4147 21.3953C14.5186 21.4992 14.5769 21.6402 14.5769 21.7871C14.5771 21.86 14.563 21.9322 14.5352 21.9995C14.5075 22.0669 14.4667 22.1281 14.4152 22.1797C14.3638 22.2313 14.3026 22.2723 14.2353 22.3002C14.168 22.3282 14.0958 22.3425 14.023 22.3425Z" fill="#0072FF"/>
</svg>
